<svg width="147" height="66" viewBox="0 0 147 66" fill="none" xmlns="http://www.w3.org/2000/svg">
<path d="M19.0162 66C16.0802 66 13.4783 65.3919 11.2105 64.1756C9.011 63.022 7.18313 61.2833 5.93431 59.1566C4.68351 57.0289 4.05811 54.6049 4.05811 51.8844V25.3682H9.44374V51.7765C9.44374 53.6024 9.85138 55.2215 10.6667 56.6335C11.458 58.0241 12.6287 59.1677 14.0457 59.9346C15.4778 60.7221 17.1368 61.1159 19.0227 61.1159C20.9085 61.1159 22.5675 60.7221 23.9996 59.9346C25.4163 59.1672 26.5869 58.0237 27.3787 56.6335C28.194 55.2204 28.6021 53.6014 28.6032 51.7765V25.3682H33.9872V51.8844C33.9872 54.6038 33.3618 57.0279 32.111 59.1566C30.8684 61.2786 29.0507 63.0167 26.8622 64.1756C24.6041 65.3919 21.9888 66 19.0162 66Z" fill="white"/>
<path d="M46.2115 43.7141C45.1129 43.7203 44.0247 43.5042 43.0142 43.0789C42.0505 42.6785 41.1823 42.0835 40.4654 41.3324C39.7528 40.5803 39.2138 39.6849 38.8853 38.7077L41.6754 37.5232C42.0685 38.4942 42.7304 39.3366 43.5854 39.9541C44.4056 40.5375 45.3936 40.8463 46.4045 40.8354C46.9286 40.8475 47.4495 40.7529 47.9348 40.5575C48.3338 40.3987 48.6814 40.1358 48.9405 39.797C49.182 39.4577 49.3061 39.0507 49.2945 38.6363C49.3126 38.1557 49.1393 37.6872 48.8118 37.3311C48.4899 36.9913 48.0126 36.7171 47.3797 36.5086L43.8751 35.3972C42.4537 34.9621 41.381 34.3137 40.6569 33.4521C39.9288 32.5874 39.5414 31.4925 39.5659 30.3686C39.5471 29.3981 39.8216 28.444 40.3544 27.628C40.8912 26.8267 41.6418 26.1871 42.5234 25.7798C43.5164 25.3228 44.6027 25.0973 45.6982 25.1209C46.7312 25.109 47.7562 25.3023 48.712 25.6893C49.5994 26.0497 50.4036 26.5839 51.0757 27.2597C51.7373 27.9305 52.2435 28.735 52.5593 29.6176L49.7901 30.8259C49.4822 29.9868 48.9205 29.2612 48.181 28.7474C47.4531 28.2478 46.5848 27.9857 45.6982 27.998C45.1936 27.9879 44.6925 28.0826 44.2274 28.2759C43.8289 28.4409 43.4854 28.7133 43.2362 29.0618C42.9831 29.4334 42.8592 29.8761 42.8833 30.3231C42.9074 30.7702 43.0781 31.1974 43.3698 31.5404C43.6916 31.9183 44.1953 32.2136 44.8646 32.4216L48.2212 33.4616C49.6758 33.9295 50.7663 34.5741 51.4925 35.3956C52.2187 36.217 52.5824 37.2327 52.5835 38.4426C52.6028 39.4129 52.3222 40.3661 51.7789 41.1752C51.2165 41.9804 50.4443 42.6211 49.5439 43.0297C48.4999 43.5037 47.3604 43.7377 46.2115 43.7141V43.7141Z" fill="white"/>
<path d="M62.6034 43.7133C61.3029 43.738 60.0172 43.4382 58.8655 42.8416C57.7917 42.2822 56.8966 41.4393 56.2803 40.4069C55.664 39.3745 55.3507 38.1933 55.3754 36.9954V25.4044H58.7062V36.8175C58.6963 37.5202 58.8715 38.2134 59.2147 38.8293C59.535 39.4111 60.0145 39.8925 60.5985 40.2186C61.2191 40.5439 61.9111 40.714 62.6139 40.714C63.3166 40.714 64.0086 40.5439 64.6293 40.2186C65.2076 39.8888 65.6825 39.4081 66.0018 38.8293C66.3405 38.2137 66.5134 37.5227 66.5039 36.8223V25.4044H69.8347V36.9954C69.8596 38.1942 69.5462 39.3762 68.9296 40.4095C68.313 41.4427 67.4175 42.2864 66.343 42.8464C65.1903 43.4415 63.904 43.7397 62.6034 43.7133Z" fill="white"/>
<path d="M73.1382 43.4228V25.4044H76.3564L83.1902 34.574H81.6712L88.3538 25.4044H91.5398V43.4228H88.1784V29.158L89.4769 29.4755L82.5466 38.5832H82.1555L75.3974 29.4692L76.4996 29.1516V43.4164L73.1382 43.4228Z" fill="white"/>
<path d="M95.0186 43.4228V25.4044H98.2367L105.072 34.5692H103.545L110.234 25.4044H113.419V43.4228H110.062V29.158L111.361 29.4755L104.43 38.5832H104.038L97.2793 29.4692L98.3816 29.1516V43.4164L95.0186 43.4228Z" fill="white"/>
<path d="M116.899 43.4228V25.4044H129.049V28.3069H120.255V32.9242H128.566V35.8506H120.255V40.5171H129.049V43.418L116.899 43.4228Z" fill="white"/>
<path d="M131.478 43.4234V25.405H138.289C139.424 25.3835 140.549 25.6107 141.584 26.0703C142.507 26.4854 143.286 27.1576 143.826 28.0043C144.362 28.8511 144.63 29.8869 144.63 31.1116C144.63 32.3363 144.332 33.388 143.736 34.2665C143.147 35.1391 142.306 35.8172 141.322 36.2132L145.506 43.4186H141.744L137.238 35.5114L139.418 36.7689H134.842V43.4186L131.478 43.4234ZM134.842 33.8728H138.345C138.89 33.8872 139.429 33.7665 139.914 33.5219C140.344 33.299 140.701 32.9597 140.942 32.5438C141.184 32.0953 141.311 31.595 141.311 31.087C141.311 30.5789 141.184 30.0786 140.942 29.6302C140.698 29.2191 140.342 28.884 139.914 28.6632C139.429 28.4193 138.89 28.2986 138.345 28.3123H134.842V33.8728Z" fill="white"/>
<path d="M46.2115 65.3525C45.1128 65.3596 44.0245 65.1434 43.0142 64.7174C42.0501 64.3175 41.1818 63.7225 40.4654 62.9708C39.7529 62.2194 39.2138 61.3245 38.8853 60.3478L41.6754 59.1633C42.0679 60.1342 42.7299 60.9762 43.5854 61.5926C44.4051 62.1772 45.3933 62.4866 46.4045 62.4754C46.9286 62.4875 47.4495 62.3929 47.9348 62.1976C48.3342 62.0388 48.682 61.7752 48.9405 61.4354C49.182 61.0968 49.3061 60.6903 49.2945 60.2763C49.3125 59.7953 49.1393 59.3264 48.8118 58.9696C48.4108 58.583 47.9186 58.3009 47.3797 58.1487L43.8751 57.0372C42.4537 56.6022 41.381 55.9533 40.6569 55.0906C39.9288 54.2265 39.5414 53.1321 39.5659 52.0087C39.5471 51.0413 39.8198 50.0902 40.3495 49.2761C40.887 48.4749 41.6374 47.835 42.5186 47.4263C43.5128 46.967 44.6006 46.7394 45.6982 46.761C46.7311 46.7494 47.7558 46.9421 48.712 47.3278C49.5992 47.6893 50.4032 48.224 51.0757 48.8997C51.7377 49.5703 52.2439 50.3748 52.5593 51.2576L49.7901 52.4659C49.4825 51.6266 48.9208 50.901 48.181 50.3875C47.4531 49.8878 46.5848 49.6258 45.6982 49.6381C45.1936 49.628 44.6925 49.7227 44.2274 49.9159C43.8286 50.0805 43.4849 50.3529 43.2362 50.7019C42.9835 51.0733 42.8598 51.5157 42.8839 51.9624C42.908 52.4091 43.0785 52.8361 43.3698 53.1789C43.6916 53.5578 44.1899 53.8521 44.8646 54.0617L48.2196 55.0969C49.6742 55.5659 50.7647 56.2105 51.4909 57.0309C52.2171 57.8512 52.5808 58.8669 52.5819 60.0779C52.6012 61.0477 52.3205 62.0004 51.7773 62.8089C51.2181 63.6165 50.4481 64.26 49.5487 64.6714C48.503 65.145 47.3618 65.3779 46.2115 65.3525Z" fill="white"/>
<path d="M64.1465 65.3531C62.9018 65.3653 61.6678 65.127 60.5196 64.6529C59.4295 64.2002 58.4441 63.5336 57.6232 62.6935C56.7971 61.8411 56.1443 60.8401 55.7003 59.745C55.226 58.5684 54.9887 57.3117 55.002 56.0454C54.9891 54.7762 55.2218 53.5163 55.6875 52.3331C56.1244 51.2326 56.781 50.2299 57.6184 49.3846C58.4424 48.5545 59.4274 47.8968 60.5147 47.4507C61.6679 46.981 62.9055 46.7465 64.1529 46.7616C65.3575 46.7423 66.5536 46.9643 67.6688 47.4141C68.6529 47.8144 69.5478 48.4013 70.3029 49.1417C70.9868 49.806 71.5137 50.6111 71.846 51.4996L68.8563 52.9016C68.5208 51.9925 67.9144 51.2048 67.1169 50.6421C66.3016 50.0536 65.3136 49.7593 64.1529 49.7593C63.0883 49.737 62.0391 50.0123 61.1262 50.5532C60.2531 51.0847 59.5484 51.8472 59.0923 52.7539C58.6162 53.7885 58.3698 54.9116 58.3698 56.0478C58.3698 57.184 58.6162 58.3071 59.0923 59.3417C59.5457 60.2536 60.2507 61.0208 61.1262 61.5551C62.0391 62.0961 63.0883 62.3713 64.1529 62.349C65.3136 62.349 66.3016 62.0547 67.1169 61.4662C67.9099 60.9091 68.5157 60.1305 68.8563 59.2306L71.846 60.6088C71.5141 61.4969 70.9871 62.3016 70.3029 62.9651C69.5483 63.7064 68.6533 64.294 67.6688 64.6942C66.552 65.147 65.3537 65.3712 64.1465 65.3531V65.3531Z" fill="white"/>
<path d="M74.5107 65.0627V47.0491H77.8673V54.9071H85.6344V47.0491H88.991V65.0627H85.6344V57.808H77.8673V65.0627H74.5107Z" fill="white"/>
<path d="M101.487 65.3526C100.199 65.3651 98.9204 65.1272 97.7251 64.6524C96.5974 64.1992 95.57 63.5337 94.7 62.693C93.8292 61.8493 93.1377 60.8426 92.6661 59.7318C92.1702 58.5664 91.92 57.3136 91.9308 56.0497C91.9197 54.7854 92.1653 53.5318 92.6533 52.3628C93.1164 51.2535 93.8048 50.2496 94.6759 49.4127C95.5516 48.5762 96.5832 47.9151 97.7139 47.466C100.14 46.5324 102.834 46.5324 105.261 47.466C106.39 47.9164 107.42 48.5804 108.292 49.4206C109.159 50.2602 109.846 51.2628 110.313 52.3692C111.28 54.7313 111.276 57.3725 110.302 59.7318C109.83 60.8422 109.138 61.8489 108.268 62.693C107.397 63.5337 106.369 64.1992 105.241 64.6524C104.048 65.1264 102.773 65.3644 101.487 65.3526V65.3526ZM101.487 62.3548C102.328 62.3613 103.161 62.1993 103.936 61.8785C104.682 61.5713 105.358 61.1184 105.922 60.5471C106.487 59.9757 106.928 59.2976 107.22 58.5536C107.535 57.7556 107.692 56.9059 107.685 56.0497C107.695 55.1938 107.537 54.3442 107.22 53.5473C106.921 52.7996 106.476 52.1176 105.909 51.5403C105.35 50.9717 104.679 50.523 103.936 50.2224C102.362 49.6106 100.611 49.6106 99.0365 50.2224C98.294 50.523 97.6224 50.9717 97.0638 51.5403C96.4969 52.1172 96.0517 52.7994 95.754 53.5473C95.4371 54.3441 95.2787 55.1937 95.2873 56.0497C95.2796 56.9092 95.438 57.7622 95.754 58.5632C96.0474 59.3132 96.4932 59.9962 97.0638 60.5701C97.6262 61.1342 98.2969 61.5822 99.0365 61.888C99.813 62.2056 100.647 62.3644 101.487 62.3548V62.3548Z" fill="white"/>
<path d="M122.999 65.352C121.709 65.3655 120.43 65.1275 119.234 64.6518C118.105 64.199 117.077 63.5335 116.207 62.6924C115.337 61.8483 114.645 60.8416 114.173 59.7312C113.679 58.5653 113.43 57.3127 113.441 56.0491C113.43 54.7847 113.676 53.5309 114.165 52.3622C114.628 51.253 115.316 50.249 116.186 49.4121C117.064 48.5728 118.099 47.9101 119.234 47.4607C121.66 46.527 124.354 46.527 126.78 47.4607C127.913 47.9113 128.945 48.577 129.818 49.42C130.685 50.2599 131.373 51.2624 131.841 52.3685C132.809 54.7307 132.804 57.3723 131.828 59.7312C131.356 60.8416 130.665 61.8483 129.794 62.6924C128.924 63.5335 127.896 64.199 126.768 64.6518C125.57 65.128 124.29 65.3659 122.999 65.352ZM122.999 62.3542C123.84 62.3607 124.674 62.1987 125.45 61.8779C126.195 61.571 126.869 61.1187 127.432 60.5482C127.995 59.9776 128.436 59.3006 128.727 58.5578C129.043 57.7568 129.202 56.9038 129.194 56.0443C129.203 55.1884 129.044 54.3388 128.727 53.5419C128.429 52.7943 127.984 52.1123 127.418 51.5349C126.859 50.9667 126.187 50.518 125.445 50.2171C123.87 49.6053 122.119 49.6053 120.544 50.2171C119.802 50.5177 119.13 50.9663 118.572 51.5349C118.005 52.1118 117.559 52.7939 117.261 53.5419C116.946 54.3407 116.79 55.1919 116.801 56.0491C116.793 56.9084 116.95 57.7615 117.266 58.5626C117.558 59.3063 117.999 59.9841 118.563 60.5554C119.127 61.1268 119.803 61.5798 120.548 61.8874C121.325 62.2049 122.159 62.3638 122.999 62.3542V62.3542Z" fill="white"/>
<path d="M135.495 65.0627V47.0491H138.852V62.1602H146.667V65.0627H135.495Z" fill="white"/>
<path d="M20.0846 0H18.1682V10.1508H20.0846V0Z" fill="#F28F3B"/>
<path d="M38.0325 16.9971H27.7456V18.8881H38.0325V16.9971Z" fill="#F28F3B"/>
<path d="M10.2869 16.9971H0V18.8881H10.2869V16.9971Z" fill="#F28F3B"/>
<path d="M7.3539 4.45447L5.99878 5.79166L13.3558 13.0513L14.7109 11.7141L7.3539 4.45447Z" fill="#F28F3B"/>
<path d="M2.32714 9.98307L1.59375 11.7302L13.384 16.5493L14.1174 14.8021L2.32714 9.98307Z" fill="#F28F3B"/>
<path d="M35.5178 10.1512L23.3469 15.1258L24.0803 16.8729L36.2512 11.8983L35.5178 10.1512Z" fill="#F28F3B"/>
<path d="M30.9964 4.78165L23.9705 11.7146L25.3256 13.0518L32.3515 6.11884L30.9964 4.78165Z" fill="#F28F3B"/>
<path d="M24.7362 0.967956L20.0151 12.2466L21.7783 12.9652L26.4993 1.68656L24.7362 0.967956Z" fill="#F28F3B"/>
<path d="M13.2505 0.870466L11.48 1.59415L16.2344 12.9204L18.0049 12.1967L13.2505 0.870466Z" fill="#F28F3B"/>
<path d="M30.959 18.896C30.959 12.4924 25.6184 7.22089 19.1273 7.22089C12.6362 7.22089 7.29565 12.486 7.29565 18.896H30.959Z" fill="#3F43C5"/>
<path d="M28.6418 18.8949C28.6418 16.4036 27.6389 14.0143 25.8537 12.2527C24.0684 10.4911 21.6471 9.50146 19.1224 9.50146C16.5977 9.50146 14.1764 10.4911 12.3912 12.2527C10.606 14.0143 9.60303 16.4036 9.60303 18.8949H28.6418Z" fill="#F28F3B"/>
<path d="M146 17H32V19H146V17Z" fill="#F28F3B"/>
</svg>
